<svg xmlns="http://www.w3.org/2000/svg" width="50" height="50" viewBox="0 0 50 50">
  <g id="clock-c" transform="translate(-362 -1178)">
    <g id="Elipse_8" data-name="Elipse 8" transform="translate(362 1178)" fill="none" stroke="#fff" stroke-width="2">
      <circle cx="25" cy="25" r="25" stroke="none"/>
      <circle cx="25" cy="25" r="24" fill="none"/>
    </g>
    <g id="_002-clock" data-name="002-clock" transform="translate(377 1192.832)">
      <g id="Grupo_4" data-name="Grupo 4" transform="translate(0 0.168)">
        <path id="Caminho_28" data-name="Caminho 28" d="M19.212,6.273A9.8,9.8,0,0,0,13.884.967a9.835,9.835,0,0,0-3.9-.8,9.733,9.733,0,0,0-3.884.8A9.835,9.835,0,0,0,.788,6.273a10,10,0,0,0,0,7.779A9.856,9.856,0,0,0,6.105,19.37a9.734,9.734,0,0,0,3.884.8,9.838,9.838,0,0,0,3.895-.8,9.825,9.825,0,0,0,5.328-5.317,9.87,9.87,0,0,0,0-7.779Zm-1.6,8.3A8.778,8.778,0,0,1,14.4,17.783a8.618,8.618,0,0,1-4.409,1.182,8.473,8.473,0,0,1-3.414-.7,8.946,8.946,0,0,1-2.8-1.871A8.892,8.892,0,0,1,1.9,13.582a8.614,8.614,0,0,1-.689-3.425,8.6,8.6,0,0,1,1.171-4.4A8.782,8.782,0,0,1,5.591,2.553a8.551,8.551,0,0,1,4.4-1.182A8.617,8.617,0,0,1,14.4,2.553a8.8,8.8,0,0,1,3.217,3.206,8.551,8.551,0,0,1,1.182,4.4A8.634,8.634,0,0,1,17.615,14.577Z" transform="translate(0 -0.168)" fill="#fff"/>
        <path id="Caminho_29" data-name="Caminho 29" d="M288.329,117.2v-5.667a.631.631,0,0,0-.635-.613.617.617,0,0,0-.6.613v5.755a.5.5,0,0,1,.022.088.572.572,0,0,0,.164.492l3.271,3.271a.622.622,0,0,0,.842,0,.59.59,0,0,0,0-.853Z" transform="translate(-277.706 -107.3)" fill="#fff"/>
      </g>
    </g>
  </g>
</svg>
