<svg xmlns="http://www.w3.org/2000/svg" width="50" height="50" viewBox="0 0 50 50">
  <g id="like-c" transform="translate(-362 -1087)">
    <g id="Elipse_3" data-name="Elipse 3" transform="translate(362 1087)" fill="none" stroke="#fff" stroke-width="2">
      <circle cx="25" cy="25" r="25" stroke="none"/>
      <circle cx="25" cy="25" r="24" fill="none"/>
    </g>
    <g id="_001-like" data-name="001-like" transform="translate(370.325 1102)">
      <path id="Caminho_27" data-name="Caminho 27" d="M25.533,13.6a2.484,2.484,0,0,0,.581-1.66,2.551,2.551,0,0,0-.544-1.439,2.235,2.235,0,0,0-.531-2.572,4.618,4.618,0,0,0-3.358-.8,13.125,13.125,0,0,0-2.058.263h0c-.209.038-.431.084-.657.134a7.3,7.3,0,0,1,.523-2.43c.586-1.782.552-3.145-.109-4.057A2.659,2.659,0,0,0,17.248,0a1.05,1.05,0,0,0-.807.368,2.814,2.814,0,0,0-.351,1.995c-.552,1.481-2.1,5.111-3.409,6.119a.448.448,0,0,0-.067.059,4.493,4.493,0,0,0-.82,1.23,1.726,1.726,0,0,0-.828-.209H8.415a1.741,1.741,0,0,0-1.74,1.74v6.8a1.741,1.741,0,0,0,1.74,1.74h2.551a1.736,1.736,0,0,0,1-.318l.983.117a42.11,42.11,0,0,0,5.575.305c.5.038.966.059,1.4.059a9.384,9.384,0,0,0,1.945-.176,3.637,3.637,0,0,0,2.6-1.614,2.56,2.56,0,0,0,.284-1.6,2.668,2.668,0,0,0,.949-2.171A2.825,2.825,0,0,0,25.533,13.6ZM8.415,18.708A.611.611,0,0,1,7.8,18.1V11.3a.611.611,0,0,1,.611-.611h2.551a.611.611,0,0,1,.611.611v6.8a.611.611,0,0,1-.611.611H8.415Zm16.048-5.6a.562.562,0,0,0-.075.682,1.74,1.74,0,0,1,.192.7,1.674,1.674,0,0,1-.786,1.447.57.57,0,0,0-.192.644,1.477,1.477,0,0,1-.113,1.079,2.616,2.616,0,0,1-1.849,1.062,11.018,11.018,0,0,1-3.049.092h-.059a41.283,41.283,0,0,1-5.437-.3h0l-.422-.05a1.772,1.772,0,0,0,.038-.368V11.3a1.769,1.769,0,0,0-.079-.519A3.5,3.5,0,0,1,13.4,9.343c1.878-1.489,3.714-6.512,3.793-6.729a.53.53,0,0,0,.025-.28,2.614,2.614,0,0,1,.054-1.213,1.5,1.5,0,0,1,1.179.565c.427.59.41,1.644-.05,3.041-.7,2.129-.761,3.25-.2,3.743a.912.912,0,0,0,.912.163c.255-.059.5-.109.728-.146l.054-.013c1.284-.28,3.584-.452,4.383.276a1.2,1.2,0,0,1,.142,1.527.559.559,0,0,0,.1.728,1.584,1.584,0,0,1,.464.974A1.553,1.553,0,0,1,24.462,13.107Z" transform="translate(0 0)" fill="#fff"/>
    </g>
  </g>
</svg>
