<svg xmlns="http://www.w3.org/2000/svg" width="15" height="15" viewBox="0 0 15 15">
  <g id="linkedin-logo-1" transform="translate(-0.002)">
    <path id="LinkedIn__x28_alt_x29_" d="M13.894,0H1.11A1.092,1.092,0,0,0,0,1.075v12.85A1.092,1.092,0,0,0,1.11,15H13.894A1.092,1.092,0,0,0,15,13.925V1.075A1.091,1.091,0,0,0,13.894,0ZM4.55,12.556H2.283V5.784H4.55Zm-1.133-7.7H3.4a1.174,1.174,0,1,1,.03-2.34,1.174,1.174,0,1,1-.014,2.34Zm9.3,7.7H10.454V8.933c0-.91-.328-1.532-1.148-1.532a1.238,1.238,0,0,0-1.162.824,1.514,1.514,0,0,0-.076.549v3.783H5.8s.03-6.137,0-6.772H8.069v.96A2.25,2.25,0,0,1,10.11,5.624c1.491,0,2.609.967,2.609,3.049v3.883ZM8.054,6.765l.015-.021v.021Z" fill="#fff"/>
  </g>
</svg>
