<svg xmlns="http://www.w3.org/2000/svg" xmlns:xlink="http://www.w3.org/1999/xlink" width="50" height="37.5" viewBox="0 0 50 37.5">
  <defs>
    <linearGradient id="linear-gradient" x1="0.5" x2="0.5" y2="1" gradientUnits="objectBoundingBox">
      <stop offset="0" stop-color="#ede65d"/>
      <stop offset="1" stop-color="#74e2a3"/>
    </linearGradient>
  </defs>
  <g id="screen" transform="translate(0 -4)">
    <g id="Laptop" transform="translate(0 4)">
      <g id="Grupo_10" data-name="Grupo 10">
        <path id="Caminho_33" data-name="Caminho 33" d="M45.313,4H4.688A4.693,4.693,0,0,0,0,8.688V29a4.693,4.693,0,0,0,4.688,4.688H45.313A4.693,4.693,0,0,0,50,29V8.688A4.693,4.693,0,0,0,45.313,4Zm1.563,25a1.564,1.564,0,0,1-1.562,1.563H4.688A1.564,1.564,0,0,1,3.125,29V8.688A1.564,1.564,0,0,1,4.688,7.125H45.313a1.564,1.564,0,0,1,1.563,1.563Zm.781,7.813H31.25a1.562,1.562,0,0,1-1.562,1.563H20.313a1.562,1.562,0,0,1-1.562-1.562H2.344a2.344,2.344,0,0,0,0,4.688H47.656a2.344,2.344,0,0,0,0-4.687Z" transform="translate(0 -4)" fill="url(#linear-gradient)"/>
      </g>
    </g>
  </g>
</svg>
