<svg id="simbolo" xmlns="http://www.w3.org/2000/svg" xmlns:xlink="http://www.w3.org/1999/xlink" width="48" height="48" viewBox="0 0 48 48">
  <defs>
    <linearGradient id="linear-gradient" x1="0.5" y1="1" x2="0.5" gradientUnits="objectBoundingBox">
      <stop offset="0" stop-color="#74e2a3"/>
      <stop offset="1" stop-color="#ede65d"/>
    </linearGradient>
  </defs>
  <g id="Layer_1" data-name="Layer 1">
    <path id="Caminho_46" data-name="Caminho 46" d="M24,0A24,24,0,1,0,48,24,24.027,24.027,0,0,0,24,0ZM38.135,41.046A19.336,19.336,0,0,0,24.816,34.93V31.517q-.4.034-.816.035l0,.006q-.409,0-.808-.036l0,3.407A19.336,19.336,0,0,0,9.865,41.046a22.154,22.154,0,1,1,28.269,0ZM26.78,10.168a9.476,9.476,0,0,0-2.461,1.778q-.162.162-.32.336l0,0q-.153-.168-.32-.336a9.479,9.479,0,0,0-2.456-1.777,7.787,7.787,0,0,1,2.2-4.39.815.815,0,0,1,1.152,0A7.773,7.773,0,0,1,26.78,10.168Zm-4.257,2.925a7.94,7.94,0,0,1,.662.752V16.73a9.5,9.5,0,0,0-1.152-.859h0a9.43,9.43,0,0,0-5.047-1.461,2.442,2.442,0,0,0-.3.018,7.831,7.831,0,0,1-.518-2.812v0a.815.815,0,0,1,.816-.814,7.779,7.779,0,0,1,5.538,2.294Zm9.307-1.463a7.822,7.822,0,0,1-.518,2.8,2.5,2.5,0,0,0-.3-.018,9.39,9.39,0,0,0-6.2,2.313V13.845a7.9,7.9,0,0,1,.662-.752A7.779,7.779,0,0,1,31.015,10.8h.017A.815.815,0,0,1,31.83,11.631Zm-8.645,7.463v2.868h0a9.388,9.388,0,0,0-6.2-2.314,2.432,2.432,0,0,0-.293.018,7.789,7.789,0,0,1-.523-2.812v0a.815.815,0,0,1,.816-.814,7.819,7.819,0,0,1,6.2,3.054Zm8.645-2.238a7.831,7.831,0,0,1-.518,2.812,2.483,2.483,0,0,0-.3-.018,9.392,9.392,0,0,0-6.2,2.314V19.087a7.91,7.91,0,0,1,.664-.753,7.777,7.777,0,0,1,5.537-2.292h0a.815.815,0,0,1,.814.814Zm-9.308,6.715a7.938,7.938,0,0,1,.661.753v5.557a7.841,7.841,0,0,1-7.013-7.787v0a.815.815,0,0,1,.816-.814,7.777,7.777,0,0,1,5.537,2.292ZM31.83,22.1a7.83,7.83,0,0,1-7.013,7.786V24.325a7.954,7.954,0,0,1,.664-.753h0a7.777,7.777,0,0,1,5.537-2.292h0a.815.815,0,0,1,.814.816Z" fill="url(#linear-gradient)"/>
  </g>
</svg>
