<svg xmlns="http://www.w3.org/2000/svg" xmlns:xlink="http://www.w3.org/1999/xlink" width="50" height="48.85" viewBox="0 0 50 48.85">
  <defs>
    <linearGradient id="linear-gradient" x1="0.5" x2="0.5" y2="1" gradientUnits="objectBoundingBox">
      <stop offset="0" stop-color="#ede65d"/>
      <stop offset="1" stop-color="#74e2a3"/>
    </linearGradient>
  </defs>
  <g id="speech-bubble" transform="translate(0 -4.257)">
    <path id="Caminho_34" data-name="Caminho 34" d="M42.545,10.154A27.883,27.883,0,0,0,25,4.257a27.883,27.883,0,0,0-17.545,5.9C2.647,14.042,0,19.242,0,24.8S2.647,35.554,7.455,39.441A27.882,27.882,0,0,0,25,45.338c.673,0,1.351-.022,2.026-.067l4.258,7.022a1.691,1.691,0,0,0,1.405.813h.039a1.69,1.69,0,0,0,1.4-.747l9.015-13.423A18.651,18.651,0,0,0,50,24.8C50,19.242,47.353,14.042,42.545,10.154ZM40.665,36.612,32.8,48.279l-3.429-5.654a1.689,1.689,0,0,0-1.444-.813q-.085,0-.171.008A27.479,27.479,0,0,1,25,41.959c-11.922,0-21.621-7.7-21.621-17.162S13.078,7.635,25,7.635s21.621,7.7,21.621,17.162A15.42,15.42,0,0,1,40.665,36.612Z" fill="url(#linear-gradient)"/>
  </g>
</svg>
